<?xml version="1.0" encoding="UTF-8"?>
<svg xmlns="http://www.w3.org/2000/svg" width="302" height="309" viewBox="0 0 302 309" fill="none">
  <path d="M294.031 109.54C233.001 -8.45996 112.531 15.5401 76.5312 60.04C158.931 -2.36006 244.531 60.04 257.031 92.0401C275.431 93.6401 289.365 104.373 294.031 109.54Z" fill="url(#paint0_linear_989_572)"></path>
  <path d="M33.5301 99.04H0.0300548V162.04C-1.16995 196.04 33.8634 206.207 51.5301 207.04H91.0301C126.63 207.44 138.863 183.207 140.53 171.04V127.54H249.03C257.03 128.04 263.53 134.54 260.53 142.54C258.13 148.94 250.53 151.54 247.03 152.04H149.53V205.54H183.53V177.54H234.03L257.03 205.54H301.53L269.03 170.54C275.03 171.04 301.53 158.04 294.03 129.04C288.03 105.84 263.53 99.3734 252.03 99.04H107.03V167.04C104.23 175.84 94.5301 179.04 90.0301 179.54C84.1967 179.873 68.5301 180.34 52.5301 179.54C36.5301 178.74 33.1967 169.207 33.5301 164.54V99.04Z" fill="white"></path>
  <path d="M289.531 79.0403C195.531 -65.9598 33.0312 19.5402 14.5312 90.5403H44.5312C116.031 -36.4598 250.311 18.5402 289.531 79.0403Z" fill="white"></path>
  <path d="M226.031 246.041C186.051 292.443 69.291 316.94 8.75643 196.988C8.67689 196.839 8.60183 196.689 8.53126 196.541C8.60622 196.69 8.68128 196.839 8.75643 196.988C12.686 204.371 27.4964 212.472 45.5313 214.041C58.0313 246.041 143.631 308.441 226.031 246.041Z" fill="white"></path>
  <path d="M13.0313 227.041C107.031 372.041 263.501 295 288.031 215.541L258.031 215.541C182.001 342.501 52.252 287.541 13.0313 227.041Z" fill="url(#paint1_linear_989_572)"></path>
  <defs>
    <linearGradient id="paint0_linear_989_572" x1="156.531" y1="21.54" x2="267.031" y2="109.54" gradientUnits="userSpaceOnUse">
      <stop stop-color="#D4AF37"></stop>
      <stop offset="1" stop-color="#C9A028"></stop>
    </linearGradient>
    <linearGradient id="paint1_linear_989_572" x1="13.0313" y1="260.81" x2="288.031" y2="260.81" gradientUnits="userSpaceOnUse">
      <stop stop-color="#B8941F"></stop>
      <stop offset="1" stop-color="#C9A028"></stop>
    </linearGradient>
  </defs>
</svg>